<?xml version="1.0" encoding="UTF-8"?>
<svg id="Layer_2" xmlns="http://www.w3.org/2000/svg" viewBox="0 0 305.86 807.53">
  <defs>
    <style>
      .cls-1 {
        fill: #fff;
      }

      .cls-2 {
        fill: #7b9b3d;
      }
    </style>
  </defs>
  <g id="Layer_1-2" data-name="Layer_1">
    <g>
      <path class="cls-2" d="M302.36,294.86v.11h-75.59c-4.53,0-8.21-3.67-8.21-8.21v-.35c0-4.53,3.67-8.21,8.21-8.21h75.59v.35h0v-63.2h-75.59c-4.53,0-8.21-3.67-8.21-8.21v-.35c0-4.53,3.67-8.21,8.21-8.21h75.59v-62.85h-75.59c-4.53,0-8.21-3.67-8.21-8.21v-.35c0-4.53,3.67-8.21,8.21-8.21h75.2C297.09,52.47,241.6,0,173.82,0h-41.78C64.26,0,8.77,52.47,3.88,119h72.7c4.53,0,8.21,3.67,8.21,8.21v.35c0,4.53-3.67,8.21-8.21,8.21H3.49v62.85h73.09c4.53,0,8.21,3.67,8.21,8.21v.35c0,4.53-3.67,8.21-8.21,8.21H3.49v62.85h73.09c4.53,0,8.21,3.67,8.21,8.21v.35c0,4.53-3.67,8.21-8.21,8.21H3.49v48.53c0,4.84.29,9.61.81,14.31h72.28c4.53,0,8.21,3.67,8.21,8.21v.35c0,4.53-3.67,8.21-8.21,8.21H7.29c13.9,55.98,64.47,97.47,124.74,97.47h41.78c60.28,0,110.84-41.5,124.74-97.47h-71.79c-4.53,0-8.21-3.67-8.21-8.21v-.35c0-4.53,3.67-8.21,8.21-8.21h74.78c.52-4.7.81-9.47.81-14.31v-48.64h0Z"/>
      <path class="cls-1" d="M247.2,472.05c-97.76,45.8-188.54,0-188.54,0C41.43,542.53,0,610.61,0,610.61c92.64,77.28,145.71,196.92,145.71,196.92l.93-256.41c-7.94-2.4-13.73-9.77-13.73-18.49,0-10.67,8.65-19.32,19.32-19.32s19.32,8.65,19.32,19.32c0,8.2-5.12,15.2-12.34,18v256.9c27.93-86.59,146.64-198.32,146.64-198.32-26.54-32.12-58.66-137.16-58.66-137.16Z"/>
    </g>
  </g>
</svg>